<svg width="44" height="44" viewBox="0 0 44 44" fill="none" xmlns="http://www.w3.org/2000/svg">
<rect x="0.75" y="0.75" width="42.5" height="42.5" rx="21.25" fill="white"/>
<path fill-rule="evenodd" clip-rule="evenodd" d="M8.13989 20.4141H36.0748V33.0001H8.13989V20.4141ZM9.06086 21.335H13.3585V22.8698H9.06086V21.335ZM13.3586 23.4838H9.06088V25.0187H13.3586V23.4838ZM14.8934 21.3349H17.0423V22.8698H14.8934V21.3349ZM17.0423 23.4838H14.8934V25.0187H17.0423V23.4838ZM18.5772 21.3349H20.726V22.8698H18.5772V21.3349ZM20.726 23.4838H18.5772V25.0187H20.726V23.4838ZM35.1539 21.3349H30.8563V22.8698H35.1539V21.3349ZM30.8563 23.4838H35.1539V25.0187H30.8563V23.4838ZM29.6283 21.3349H27.4795V22.8698H29.6283V21.3349ZM27.4795 23.4838H29.6283V25.0187H27.4795V23.4838ZM25.9446 21.3349H23.7958V22.8698H25.9446V21.3349ZM23.7958 23.4838H25.9446V25.0187H23.7958V23.4838ZM9.06088 28.3954H13.3586V29.9303H9.06088V28.3954ZM13.3586 30.5443H9.06091V32.0792H13.3586V30.5443ZM14.8935 28.3954H17.0423V29.9303H14.8935V28.3954ZM17.0423 30.5443H14.8935V32.0792H17.0423V30.5443ZM18.5772 28.3954H20.7261V29.9303H18.5772V28.3954ZM20.7261 30.5443H18.5772V32.0792H20.7261V30.5443ZM35.1539 28.3954H30.8563V29.9303H35.1539V28.3954ZM30.8563 30.5443H35.1539V32.0792H30.8563V30.5443ZM29.6283 28.3954H27.4795V29.9303H29.6283V28.3954ZM27.4795 30.5443H29.6283V32.0792H27.4795V30.5443ZM25.9446 28.3954H23.7958V29.9303H25.9446V28.3954ZM23.7958 30.5443H25.9446V32.0792H23.7958V30.5443Z" fill="#E85C4A"/>
<path fill-rule="evenodd" clip-rule="evenodd" d="M22.1073 6.6001L36.0748 19.4931H27.6562C27.6787 19.2915 27.6902 19.0867 27.6902 18.8792C27.6902 15.8275 25.1907 13.3536 22.1074 13.3536C19.0241 13.3536 16.5246 15.8275 16.5246 18.8792C16.5246 19.0867 16.5361 19.2915 16.5586 19.4931H8.13989L22.1073 6.6001ZM16.5586 19.4931C16.5586 19.4931 16.5586 19.4931 16.5586 19.4932H27.6562C27.6562 19.4931 27.6562 19.4931 27.6562 19.4931H16.5586ZM19.316 10.5908H24.8988V12.1257H19.316V10.5908Z" fill="#05944F"/>
<rect x="0.75" y="0.75" width="42.5" height="42.5" rx="21.25" stroke="#05944F" stroke-width="1.5"/>
</svg>
