<svg width="36" height="34" viewBox="0 0 36 34" fill="none" xmlns="http://www.w3.org/2000/svg">
<path fill-rule="evenodd" clip-rule="evenodd" d="M4.57764e-05 17.7812H35.5535V33.7999H4.57764e-05V17.7812ZM1.17216 18.9533H6.64193V20.9068H1.17216V18.9533ZM6.64196 21.6882H1.17219V23.6417H6.64196V21.6882ZM8.59544 18.9533H11.3303V20.9068H8.59544V18.9533ZM11.3303 21.6882H8.59544V23.6417H11.3303V21.6882ZM13.2839 18.9533H16.0188V20.9068H13.2839V18.9533ZM16.0188 21.6882H13.2839V23.6417H16.0188V21.6882ZM34.3815 18.9533H28.9118V20.9068H34.3815V18.9533ZM28.9118 21.6882H34.3815V23.6416H28.9118V21.6882ZM27.3489 18.9533H24.614V20.9068H27.3489V18.9533ZM24.614 21.6882H27.3489V23.6416H24.614V21.6882ZM22.6606 18.9533H19.9257V20.9068H22.6606V18.9533ZM19.9257 21.6882H22.6606V23.6416H19.9257V21.6882ZM1.17219 27.9393H6.64196V29.8928H1.17219V27.9393ZM6.64198 30.6743H1.17222V32.6277H6.64198V30.6743ZM8.59547 27.9394H11.3303V29.8928H8.59547V27.9394ZM11.3303 30.6743H8.59547V32.6277H11.3303V30.6743ZM13.2839 27.9394H16.0188V29.8928H13.2839V27.9394ZM16.0188 30.6743H13.2839V32.6277H16.0188V30.6743ZM34.3815 27.9393H28.9118V29.8928H34.3815V27.9393ZM28.9118 30.6743H34.3815V32.6277H28.9118V30.6743ZM27.3489 27.9394H24.614V29.8928H27.3489V27.9394ZM24.614 30.6743H27.3489V32.6277H24.614V30.6743ZM22.6606 27.9394H19.9257V29.8928H22.6606V27.9394ZM19.9257 30.6743H22.6606V32.6277H19.9257V30.6743Z" fill="white"/>
<path fill-rule="evenodd" clip-rule="evenodd" d="M17.7767 0.199951L35.5535 16.6093H24.839C24.8676 16.3527 24.8823 16.092 24.8823 15.8279C24.8823 11.9439 21.7011 8.7953 17.7769 8.7953C13.8527 8.7953 10.6714 11.9439 10.6714 15.8279C10.6714 16.092 10.6862 16.3527 10.7148 16.6093H0L17.7767 0.199951ZM10.7148 16.6093C10.7148 16.6093 10.7148 16.6093 10.7148 16.6093H24.839C24.839 16.6093 24.839 16.6093 24.839 16.6093H10.7148ZM14.2241 5.27904H21.3295V7.23253H14.2241V5.27904Z" fill="white"/>
</svg>
