<svg width="60" height="60" viewBox="0 0 60 60" fill="none" xmlns="http://www.w3.org/2000/svg">
<g clip-path="url(#clip0)">
<path d="M20.7752 11.5591H10.2842C9.31326 11.5591 8.52637 12.346 8.52637 13.3169C8.52637 14.2878 9.31326 15.0747 10.2842 15.0747H20.7752C21.7457 15.0747 22.533 14.2878 22.533 13.3169C22.533 12.346 21.7457 11.5591 20.7752 11.5591Z" fill="#05944F"/>
<path d="M20.7752 18.5908H10.2842C9.31326 18.5908 8.52637 19.3777 8.52637 20.3486C8.52637 21.3195 9.31326 22.1064 10.2842 22.1064H20.7752C21.7457 22.1064 22.533 21.3195 22.533 20.3486C22.533 19.3777 21.7457 18.5908 20.7752 18.5908Z" fill="#05944F"/>
<path d="M20.7752 25.6223H10.2842C9.31326 25.6223 8.52637 26.4092 8.52637 27.3801C8.52637 28.351 9.31326 29.1379 10.2842 29.1379H20.7752C21.7457 29.1379 22.533 28.351 22.533 27.3801C22.533 26.4092 21.7457 25.6223 20.7752 25.6223Z" fill="#05944F"/>
<path d="M20.7752 32.6541H10.2842C9.31326 32.6541 8.52637 33.4409 8.52637 34.4119C8.52637 35.3828 9.31326 36.1697 10.2842 36.1697H20.7752C21.7457 36.1697 22.533 35.3828 22.533 34.4119C22.533 33.4409 21.7457 32.6541 20.7752 32.6541Z" fill="#05944F"/>
<path d="M20.7752 39.8035H10.2842C9.31326 39.8035 8.52637 40.5908 8.52637 41.5613C8.52637 42.5322 9.31326 43.3191 10.2842 43.3191H20.7752C21.7457 43.3191 22.533 42.5322 22.533 41.5613C22.533 40.5908 21.7457 39.8035 20.7752 39.8035Z" fill="#05944F"/>
<path d="M26.6785 15.0747H37.1695C38.1404 15.0747 38.9273 14.2878 38.9273 13.3169C38.9273 12.346 38.1404 11.5591 37.1695 11.5591H26.6785C25.708 11.5591 24.9207 12.346 24.9207 13.3169C24.9207 14.2878 25.708 15.0747 26.6785 15.0747Z" fill="#05944F"/>
<path d="M26.6785 22.1064H37.1695C38.1404 22.1064 38.9273 21.3195 38.9273 20.3486C38.9273 19.3777 38.1404 18.5908 37.1695 18.5908H26.6785C25.708 18.5908 24.9207 19.3777 24.9207 20.3486C24.9207 21.3195 25.708 22.1064 26.6785 22.1064Z" fill="#05944F"/>
<path d="M33.4891 27.3801C33.4891 26.4092 32.7022 25.6223 31.7313 25.6223H26.6785C25.708 25.6223 24.9207 26.4092 24.9207 27.3801C24.9207 28.351 25.708 29.1379 26.6785 29.1379H31.7313C32.7022 29.1379 33.4891 28.351 33.4891 27.3801Z" fill="#05944F"/>
<path d="M50.1412 40.5457C49.3841 39.9382 48.2781 40.0596 47.6702 40.8167L43.1429 46.4609L40.3401 44.4303C39.5541 43.8604 38.4545 44.0361 37.8851 44.8221C37.3156 45.6086 37.4914 46.7077 38.2774 47.2771L42.4352 50.2897C42.7465 50.5149 43.1072 50.6243 43.4657 50.6243C43.9816 50.6243 44.4915 50.3977 44.8376 49.966L50.4127 43.0167C51.0201 42.2596 50.8988 41.1532 50.1412 40.5457Z" fill="#05944F"/>
<path d="M54.5842 35.1494C52.2945 32.8194 49.3524 31.3509 46.1646 30.9183V7.07932C46.1646 3.17596 42.9886 0 39.0852 0H8.36884C4.46503 0 1.28906 3.17596 1.28906 7.07932V47.7988C1.28906 51.7026 4.46503 54.8785 8.36838 54.8785H33.0734C35.8534 58.1442 39.8506 60 44.1751 60C52.2249 60 58.7737 53.4467 58.7737 45.3914C58.7737 41.5352 57.2859 37.8978 54.5842 35.1494ZM4.80469 47.7988V7.07932C4.80469 5.11459 6.40366 3.51562 8.36884 3.51562H39.0852C41.0504 3.51562 42.6489 5.11459 42.6489 7.07932V30.8624C35.3137 31.6283 29.5766 37.8516 29.5766 45.3914C29.5766 47.4811 30.0124 49.5016 30.8482 51.3625H8.36884C6.40366 51.3625 4.80469 49.7639 4.80469 47.7988ZM44.1751 56.4844C40.6645 56.4844 37.4373 54.8726 35.3201 52.0628C33.8626 50.1279 33.0917 47.8212 33.0917 45.3914C33.0917 39.2747 38.064 34.2984 44.1751 34.2984C44.2328 34.2984 44.2909 34.2993 44.3486 34.3002L44.3756 34.3007C47.2929 34.3524 50.0281 35.5289 52.077 37.6135C54.1283 39.7005 55.258 42.4631 55.258 45.3914C55.258 51.508 50.2863 56.4844 44.1751 56.4844Z" fill="#05944F"/>
</g>
<defs>
<clipPath id="clip0">
<rect width="60" height="60" fill="white"/>
</clipPath>
</defs>
</svg>
