<svg width="60" height="60" viewBox="0 0 60 60" fill="none" xmlns="http://www.w3.org/2000/svg">
<g clip-path="url(#clip0)">
<path d="M16.1655 39.5466H5.97656C5.00565 39.5466 4.21875 40.3335 4.21875 41.3044V58.2422C4.21875 59.2131 5.00565 60 5.97656 60H16.1659C17.1364 60 17.9237 59.2131 17.9237 58.2422V41.3044C17.9233 40.3335 17.1364 39.5466 16.1655 39.5466ZM14.4077 56.4843H7.73438V43.0623H14.4081V56.4843H14.4077Z" fill="#05944F"/>
<path d="M35.0739 30.0791H24.8845C23.9136 30.0791 23.1267 30.866 23.1267 31.8369V58.2421C23.1267 59.213 23.9136 59.9999 24.8845 59.9999H35.0739C36.0443 59.9999 36.8317 59.213 36.8317 58.2421V31.8369C36.8317 30.866 36.0443 30.0791 35.0739 30.0791ZM33.3161 56.4843H26.6423V33.5947H33.3161V56.4843Z" fill="#05944F"/>
<path d="M53.9811 15.7805H43.7922C42.8213 15.7805 42.0344 16.5674 42.0344 17.5383V58.2422C42.0344 59.2131 42.8213 60 43.7922 60H53.9811C54.9521 60 55.739 59.2131 55.739 58.2422V17.5383C55.739 16.5674 54.9521 15.7805 53.9811 15.7805ZM52.2238 56.4844H45.55V19.2957H52.2238V56.4844Z" fill="#05944F"/>
<path d="M6.09319 22.0999C6.36877 22.0999 6.64846 22.0349 6.90984 21.8976L25.2689 12.2433L32.5767 16.0318C33.1008 16.3037 33.7266 16.2941 34.242 16.0061L50.5224 6.92137L49.8961 8.57389C49.5519 9.48164 50.0087 10.4965 50.9165 10.8407C51.1216 10.9181 51.3321 10.9552 51.5391 10.9552C52.2486 10.9552 52.9169 10.5226 53.1833 9.81993L55.5106 3.67994C55.598 3.44923 55.6388 3.17045 55.6191 2.92097C55.6022 2.67012 55.5326 2.41926 55.4021 2.18534C55.1023 1.64793 54.5626 1.33024 53.9917 1.2895L47.6934 0.0343134C46.7417 -0.155659 45.8156 0.462322 45.6261 1.41447C45.4361 2.36662 46.0541 3.29222 47.0063 3.48219L48.8227 3.84382L33.3548 12.4754L26.0723 8.69978C25.5619 8.43519 24.954 8.43702 24.4454 8.70481L5.27334 18.7857C4.41411 19.238 4.08407 20.3004 4.53588 21.1596C4.85036 21.7579 5.46102 22.0999 6.09319 22.0999Z" fill="#05944F"/>
</g>
<defs>
<clipPath id="clip0">
<rect width="60" height="60" fill="white"/>
</clipPath>
</defs>
</svg>
