<svg width="60" height="60" viewBox="0 0 60 60" fill="none" xmlns="http://www.w3.org/2000/svg">
<g clip-path="url(#clip0)">
<path d="M58.2431 5.39978H52.0491L52.0537 1.7569C52.0537 0.786896 51.2668 0 50.2963 0C49.3263 0 48.5394 0.786896 48.5394 1.7569L48.5353 5.39978H43.96L43.9641 1.7569C43.9641 0.786896 43.1776 0 42.2072 0C41.2367 0 40.4503 0.786896 40.4503 1.7569L40.4457 5.39978H35.8708L35.8749 1.7569C35.8749 0.786896 35.0885 0 34.118 0C33.1476 0 32.3611 0.786896 32.3611 1.7569L32.3566 5.39978H27.7817L27.7858 1.7569C27.7858 0.786896 26.9994 0 26.0289 0C25.0584 0 24.272 0.786896 24.272 1.7569L24.2674 5.39978H19.6921L19.6967 1.7569C19.6967 0.786896 18.9098 0 17.9398 0C16.9693 0 16.1824 0.786896 16.1824 1.7569L16.1783 5.39978H11.6034L11.6075 1.7569C11.6075 0.786896 10.8211 0 9.85062 0C8.88016 0 8.09372 0.786896 8.09372 1.7569L8.08914 5.39978H1.7569C0.786896 5.39978 0 6.18668 0 7.15714V52.7138C0 56.7137 3.25424 59.968 7.25464 59.968H52.7454C56.7458 59.968 60 56.7137 60 52.7138V7.15714C60 6.18668 59.2131 5.39978 58.2431 5.39978ZM8.08914 8.91403V12.1083C8.08914 13.0788 8.87604 13.8652 9.84604 13.8652C10.8165 13.8652 11.6034 13.0788 11.6034 12.1083V8.91403H16.1783V12.1083C16.1783 13.0788 16.9652 13.8652 17.9356 13.8652C18.9056 13.8652 19.6925 13.0788 19.6925 12.1083V8.91403H24.2679V12.1083C24.2679 13.0788 25.0543 13.8652 26.0248 13.8652C26.9952 13.8652 27.7817 13.0788 27.7817 12.1083V8.91403H32.357V12.1083C32.357 13.0788 33.1435 13.8652 34.1139 13.8652C35.0844 13.8652 35.8708 13.0788 35.8708 12.1083V8.91403H40.4462V12.1083C40.4462 13.0788 41.2326 13.8652 42.2031 13.8652C43.1735 13.8652 43.96 13.0788 43.96 12.1083V8.91403H48.5353V12.1083C48.5353 13.0788 49.3222 13.8652 50.2922 13.8652C51.2627 13.8652 52.0496 13.0788 52.0496 12.1083V8.91403H56.4862V17.5003H3.51379V8.91403H8.08914ZM52.7454 56.4542H7.25464C5.19196 56.4542 3.51379 54.776 3.51379 52.7138V21.0141H56.4862V52.7138C56.4862 54.776 54.808 56.4542 52.7454 56.4542Z" fill="#05944F"/>
<path d="M18.0591 25.3381H10.3238C9.35333 25.3381 8.56689 26.125 8.56689 27.095V34.763C8.56689 35.733 9.35333 36.5199 10.3238 36.5199H18.0591C19.0295 36.5199 19.8164 35.733 19.8164 34.763V27.095C19.8164 26.125 19.0295 25.3381 18.0591 25.3381ZM16.3022 33.0057H12.0807V28.8519H16.3022V33.0057Z" fill="#05944F"/>
<path d="M33.8841 25.3381H26.1484C25.1784 25.3381 24.3915 26.125 24.3915 27.095V34.763C24.3915 35.733 25.1784 36.5199 26.1484 36.5199H33.8841C34.8546 36.5199 35.641 35.733 35.641 34.763V27.095C35.641 26.125 34.8546 25.3381 33.8841 25.3381ZM32.1272 33.0057H27.9057V28.8519H32.1272V33.0057Z" fill="#05944F"/>
<path d="M49.7084 25.3381H41.9731C41.0026 25.3381 40.2162 26.125 40.2162 27.095V34.763C40.2162 35.733 41.0026 36.5199 41.9731 36.5199H49.7084C50.6788 36.5199 51.4657 35.733 51.4657 34.763V27.095C51.4657 26.125 50.6788 25.3381 49.7084 25.3381ZM47.9515 33.0057H43.73V28.8519H47.9515V33.0057Z" fill="#05944F"/>
<path d="M18.0591 40.0342H10.3238C9.35333 40.0342 8.56689 40.8211 8.56689 41.7915V49.4591C8.56689 50.4295 9.35333 51.216 10.3238 51.216H18.0591C19.0295 51.216 19.8164 50.4295 19.8164 49.4591V41.7915C19.8164 40.8211 19.0295 40.0342 18.0591 40.0342ZM16.3022 47.7022H12.0807V43.5484H16.3022V47.7022Z" fill="#05944F"/>
<path d="M33.8841 40.0342H26.1484C25.1784 40.0342 24.3915 40.8211 24.3915 41.7915V49.4591C24.3915 50.4295 25.1784 51.216 26.1484 51.216H33.8841C34.8546 51.216 35.641 50.4295 35.641 49.4591V41.7915C35.641 40.8211 34.8546 40.0342 33.8841 40.0342ZM32.1272 47.7022H27.9057V43.5484H32.1272V47.7022Z" fill="#05944F"/>
<path d="M49.7084 40.0342H41.9731C41.0026 40.0342 40.2162 40.8211 40.2162 41.7915V49.4591C40.2162 50.4295 41.0026 51.216 41.9731 51.216H49.7084C50.6788 51.216 51.4657 50.4295 51.4657 49.4591V41.7915C51.4657 40.8211 50.6788 40.0342 49.7084 40.0342ZM47.9515 47.7022H43.73V43.5484H47.9515V47.7022Z" fill="#05944F"/>
</g>
<defs>
<clipPath id="clip0">
<rect width="60" height="60" fill="white"/>
</clipPath>
</defs>
</svg>
