<svg width="60" height="60" viewBox="0 0 60 60" fill="none" xmlns="http://www.w3.org/2000/svg">
<path d="M53.8675 9.71553L30.8987 0.179165C30.3233 -0.0596631 29.6766 -0.0597803 29.1013 0.179165L6.13254 9.71553C5.25773 10.0788 4.6875 10.9329 4.6875 11.8801V23.4729C4.6875 39.4353 14.3354 53.794 29.1143 59.8262C29.682 60.0579 30.3179 60.0579 30.8857 59.8262C45.6643 53.7941 55.3125 39.4355 55.3125 23.4729V11.8801C55.3125 10.9329 54.7424 10.0788 53.8675 9.71553ZM50.625 23.4729C50.625 37.0426 42.6562 49.5344 30 55.1105C17.682 49.6834 9.375 37.4103 9.375 23.4729V13.4448L30 4.88143L50.625 13.4448V23.4729ZM27.4095 31.373L37.4834 21.2992C38.3986 20.3839 39.8825 20.3838 40.7979 21.2992C41.7132 22.2145 41.7131 23.6985 40.7978 24.6137L29.0667 36.3447C28.1512 37.2602 26.6673 37.2599 25.7522 36.3447L19.2021 29.7947C18.2868 28.8793 18.2868 27.3954 19.2021 26.4801C20.1175 25.5649 21.6014 25.5648 22.5166 26.4801L27.4095 31.373Z" fill="#05944F"/>
</svg>
